<?xml version="1.0" standalone="no"?>
<!DOCTYPE svg PUBLIC "-//W3C//DTD SVG 20010904//EN"
 "http://www.w3.org/TR/2001/REC-SVG-20010904/DTD/svg10.dtd">
<svg version="1.0" xmlns="http://www.w3.org/2000/svg"
 width="180.000000pt" height="180.000000pt" viewBox="0 0 180.000000 180.000000"
 preserveAspectRatio="xMidYMid meet">
<metadata>
Created by potrace 1.11, written by Peter Selinger 2001-2013
</metadata>
<g transform="translate(0.000000,180.000000) scale(0.100000,-0.100000)"
fill="#000000" stroke="none">
<path d="M0 900 l0 -900 900 0 900 0 0 900 0 900 -900 0 -900 0 0 -900z m1048
744 c249 -51 456 -219 551 -447 185 -448 -77 -944 -551 -1041 -349 -72 -710
119 -847 447 -185 447 75 940 549 1042 88 18 205 18 298 -1z"/>
<path d="M200 1031 c-38 -93 9 -176 132 -231 101 -44 261 -42 367 5 63 29 131
89 115 104 -8 7 -571 151 -593 151 -5 0 -14 -13 -21 -29z"/>
<path d="M1263 967 c-133 -34 -245 -65 -249 -70 -12 -11 36 -56 88 -83 93 -47
243 -52 344 -9 49 20 103 74 115 114 14 46 -9 112 -38 110 -10 0 -127 -29
-260 -62z"/>
<path d="M918 415 c-93 -31 -148 -55 -148 -63 0 -24 39 -69 74 -86 81 -38 177
-11 220 63 20 36 28 115 11 128 -6 5 -74 -13 -157 -42z"/>
</g>
</svg>
